<svg xmlns="http://www.w3.org/2000/svg" width="131" height="42" viewBox="0 0 131 42" fill="none" role="img" aria-label="ORIGI">
  <path fill-rule="evenodd" clip-rule="evenodd" d="M28.8 14.4C28.8 22.4 22.3 28.8 14.4 28.8C6.49999 28.8 0 22.4 0 14.4C0 6.5 6.49999 0 14.4 0C22.3 0 28.8 6.5 28.8 14.4ZM20.5 14.4C20.5 11 17.8 8.3 14.4 8.3C11 8.3 8.3 11 8.3 14.4C8.3 17.8 11 20.5 14.4 20.5C17.8 20.5 20.5 17.8 20.5 14.4Z" fill="#5FA684"/>
  <path d="M56.8 4.40002C56.8 2.20002 55.1 0.400012 52.9 0.200012C52.8333 0.200012 52.7666 0.200012 52.7 0.200012C44.8 0.200012 38.4 6.60002 38.3 14.4V24.4C38.3 24.4667 38.3 24.5667 38.3 24.7C38.3 24.7667 38.3 24.8334 38.3 24.9C38.4 27.1 40.2 28.8 42.4 28.8C44.6 28.8 46.4 27.1 46.5 24.9C46.5 24.8334 46.5 24.7667 46.5 24.7C46.5 24.5667 46.5 24.4667 46.5 24.4V14.6C46.5 11.3 49.2 8.50002 52.6 8.50002C52.6 8.50002 52.6333 8.50002 52.7 8.50002C52.7666 8.50002 52.8333 8.50002 52.9 8.50002C55.1 8.40002 56.8 6.60002 56.8 4.40002Z" fill="#5FA684"/>
  <path fill-rule="evenodd" clip-rule="evenodd" d="M112.7 27.6C112.6 35.4 106.2 41.8 98.4 41.8C98.2667 41.8 98.1667 41.8 98.1 41.8C96 41.6 94.2 39.8 94.2 37.6C94.2 35.4 96 33.6 98.1 33.5C98.1667 33.5 98.2333 33.5 98.3 33.5C98.3 33.5 98.3333 33.5 98.4 33.5C101.8 33.5 104.5 30.8 104.5 27.4C102.6 28.3 100.6 28.8 98.4 28.8C90.4 28.8 84 22.4 84 14.4C84 6.5 90.4 0 98.4 0C106.3 0 112.8 6.5 112.8 14.4C112.8 15.1 112.7 27.6 112.7 27.6ZM104.5 14.4C104.5 11 101.8 8.3 98.4 8.3C95 8.3 92.3 11 92.3 14.4C92.3 17.8 95 20.5 98.4 20.5C101.8 20.5 104.5 17.8 104.5 14.4Z" fill="#5FA684"/>
  <path d="M74.5 24.4V15.7C74.5 15.5667 74.5 15.4667 74.5 15.4C74.5 15.3334 74.5 15.2667 74.5 15.2V15.1C74.4 13 72.6 11.3 70.4 11.3C68.2 11.3 66.4 13 66.3 15.1V15.2C66.3 15.2667 66.3 15.3334 66.3 15.4C66.3 15.4667 66.3 15.5667 66.3 15.7V18.4V24.4C66.3 24.4667 66.3 24.5667 66.3 24.7C66.3 24.7667 66.3 24.8334 66.3 24.9C66.4 27.1 68.2 28.8 70.4 28.8C72.6 28.8 74.4 27.1 74.5 24.9C74.5 24.8334 74.5 24.7667 74.5 24.7C74.5 24.5667 74.5 24.4667 74.5 24.4Z" fill="#5FA684"/>
  <path d="M74.5 4.40002C74.5 6.70002 72.7 8.50002 70.4 8.50002C68.1 8.50002 66.3 6.70002 66.3 4.40002C66.3 2.10002 68.1 0.200012 70.4 0.200012C72.7 0.200012 74.5 2.10002 74.5 4.40002Z" fill="#5FA684"/>
  <path d="M130.5 24.4V15.7C130.5 15.5667 130.5 15.4667 130.5 15.4C130.5 15.3334 130.5 15.2667 130.5 15.2V15.1C130.3 13 128.5 11.3 126.4 11.3C124.2 11.3 122.4 13 122.2 15.1V15.2C122.2 15.2667 122.2 15.3334 122.2 15.4C122.2 15.4667 122.2 15.5667 122.2 15.7V18.4V24.4C122.2 24.4667 122.2 24.5667 122.2 24.7C122.2 24.7667 122.2 24.8334 122.2 24.9C122.4 27.1 124.2 28.8 126.4 28.8C128.5 28.8 130.3 27.1 130.5 24.9C130.5 24.8334 130.5 24.7667 130.5 24.7C130.5 24.5667 130.5 24.4667 130.5 24.4Z" fill="#5FA684"/>
  <path d="M130.5 4.40002C130.5 6.70002 128.7 8.50002 126.4 8.50002C124.1 8.50002 122.2 6.70002 122.2 4.40002C122.2 2.10002 124.1 0.200012 126.4 0.200012C128.7 0.200012 130.5 2.10002 130.5 4.40002Z" fill="#5FA684"/>
</svg>
